<svg width="852" height="852" viewBox="0 0 852 852" fill="none" xmlns="http://www.w3.org/2000/svg">
<path d="M472.5 458.5H459.5C453 481.5 443 497 430 505.5C420 512 404 515.5 382 515.5H254L366.5 394L273 274H364C384 274 399.5 277.5 409.5 284.5C424.5 295 435.5 316.5 443 349.5H456V251H166V259L305 430.5L166 581V589H456.5L472.5 458.5ZM765.02 375H641.52C576.52 375 511.52 429.5 511.52 514.5C511.52 550.5 531.02 594.5 582.52 594.5C655.02 594.5 710.52 539 710.52 483C710.52 445.5 679.52 443 668.52 411.5H755.02L765.02 375ZM634.52 411.5C651.02 421.5 670.52 444 670.52 476C670.52 516.5 634.02 579.5 584.52 579.5C557.52 579.5 552.02 544.5 552.02 528.5C552.02 457.5 600.02 414.5 633.52 411.5H634.52Z" fill="white"/>
<circle cx="426" cy="426" r="411" stroke="white" stroke-width="30"/>
</svg>
